<?xml version="1.0" encoding="utf-8" standalone="no"?>
<!DOCTYPE svg PUBLIC "-//W3C//DTD SVG 1.1//EN"
  "http://www.w3.org/Graphics/SVG/1.1/DTD/svg11.dtd">
<svg xmlns:xlink="http://www.w3.org/1999/xlink" width="240.944882pt" height="170.07874pt" viewBox="0 0 240.944882 170.07874" xmlns="http://www.w3.org/2000/svg" version="1.1">
 <metadata>
  <rdf:RDF xmlns:dc="http://purl.org/dc/elements/1.1/" xmlns:cc="http://creativecommons.org/ns#" xmlns:rdf="http://www.w3.org/1999/02/22-rdf-syntax-ns#">
   <cc:Work>
    <dc:type rdf:resource="http://purl.org/dc/dcmitype/StillImage"/>
    <dc:date>2026-07-06T16:21:59.973870</dc:date>
    <dc:format>image/svg+xml</dc:format>
    <dc:creator>
     <cc:Agent>
      <dc:title>Matplotlib v3.11.0, https://matplotlib.org/</dc:title>
     </cc:Agent>
    </dc:creator>
   </cc:Work>
  </rdf:RDF>
 </metadata>
 <defs>
  <style type="text/css">*{stroke-linejoin: round; stroke-linecap: butt}</style>
 </defs>
 <g id="figure_1">
  <g id="patch_1">
   <path d="M 0 170.07874 
L 240.944882 170.07874 
L 240.944882 0 
L 0 0 
L 0 170.07874 
z
" style="fill: none"/>
  </g>
  <g id="axes_1">
   <g id="patch_2">
    <path d="M 18.43 152.04874 
L 219.034882 152.04874 
L 219.034882 1.5 
L 18.43 1.5 
L 18.43 152.04874 
z
" style="fill: none"/>
   </g>
   <g id="matplotlib.axis_1">
    <g id="xtick_1">
     <g id="line2d_1">
      <path d="M 29.478225 152.04874 
L 29.478225 1.5 
" clip-path="url(#p310b3e30d8)" style="fill: none; stroke: #b0b0b0; stroke-opacity: 0.25; stroke-width: 0.8; stroke-linecap: square"/>
     </g>
     <g id="line2d_2">
      <defs>
       <path id="mc2d8958be6" d="M 0 0 
L 0 1.5 
" style="stroke: #000000; stroke-width: 0.4"/>
      </defs>
      <g>
       <use xlink:href="#mc2d8958be6" x="29.478225" y="152.04874" style="stroke: #000000; stroke-width: 0.4"/>
      </g>
     </g>
     <g id="text_1">
      <text style="font-size: 5px; font-family: 'Roboto Condensed'; text-anchor: middle" x="29.478225" y="158.79874" transform="rotate(-0 29.478225 158.79874)">1</text>
     </g>
    </g>
    <g id="xtick_2">
     <g id="line2d_3">
      <path d="M 43.951881 152.04874 
L 43.951881 1.5 
" clip-path="url(#p310b3e30d8)" style="fill: none; stroke: #b0b0b0; stroke-opacity: 0.25; stroke-width: 0.8; stroke-linecap: square"/>
     </g>
     <g id="line2d_4">
      <g>
       <use xlink:href="#mc2d8958be6" x="43.951881" y="152.04874" style="stroke: #000000; stroke-width: 0.4"/>
      </g>
     </g>
     <g id="text_2">
      <text style="font-size: 5px; font-family: 'Roboto Condensed'; text-anchor: middle" x="43.951881" y="158.79874" transform="rotate(-0 43.951881 158.79874)">4</text>
     </g>
    </g>
    <g id="xtick_3">
     <g id="line2d_5">
      <path d="M 63.25009 152.04874 
L 63.25009 1.5 
" clip-path="url(#p310b3e30d8)" style="fill: none; stroke: #b0b0b0; stroke-opacity: 0.25; stroke-width: 0.8; stroke-linecap: square"/>
     </g>
     <g id="line2d_6">
      <g>
       <use xlink:href="#mc2d8958be6" x="63.25009" y="152.04874" style="stroke: #000000; stroke-width: 0.4"/>
      </g>
     </g>
     <g id="text_3">
      <text style="font-size: 5px; font-family: 'Roboto Condensed'; text-anchor: middle" x="63.25009" y="158.79874" transform="rotate(-0 63.25009 158.79874)">8</text>
     </g>
    </g>
    <g id="xtick_4">
     <g id="line2d_7">
      <path d="M 82.548299 152.04874 
L 82.548299 1.5 
" clip-path="url(#p310b3e30d8)" style="fill: none; stroke: #b0b0b0; stroke-opacity: 0.25; stroke-width: 0.8; stroke-linecap: square"/>
     </g>
     <g id="line2d_8">
      <g>
       <use xlink:href="#mc2d8958be6" x="82.548299" y="152.04874" style="stroke: #000000; stroke-width: 0.4"/>
      </g>
     </g>
     <g id="text_4">
      <text style="font-size: 5px; font-family: 'Roboto Condensed'; text-anchor: middle" x="82.548299" y="158.79874" transform="rotate(-0 82.548299 158.79874)">12</text>
     </g>
    </g>
    <g id="xtick_5">
     <g id="line2d_9">
      <path d="M 101.846508 152.04874 
L 101.846508 1.5 
" clip-path="url(#p310b3e30d8)" style="fill: none; stroke: #b0b0b0; stroke-opacity: 0.25; stroke-width: 0.8; stroke-linecap: square"/>
     </g>
     <g id="line2d_10">
      <g>
       <use xlink:href="#mc2d8958be6" x="101.846508" y="152.04874" style="stroke: #000000; stroke-width: 0.4"/>
      </g>
     </g>
     <g id="text_5">
      <text style="font-size: 5px; font-family: 'Roboto Condensed'; text-anchor: middle" x="101.846508" y="158.79874" transform="rotate(-0 101.846508 158.79874)">16</text>
     </g>
    </g>
    <g id="xtick_6">
     <g id="line2d_11">
      <path d="M 121.144717 152.04874 
L 121.144717 1.5 
" clip-path="url(#p310b3e30d8)" style="fill: none; stroke: #b0b0b0; stroke-opacity: 0.25; stroke-width: 0.8; stroke-linecap: square"/>
     </g>
     <g id="line2d_12">
      <g>
       <use xlink:href="#mc2d8958be6" x="121.144717" y="152.04874" style="stroke: #000000; stroke-width: 0.4"/>
      </g>
     </g>
     <g id="text_6">
      <text style="font-size: 5px; font-family: 'Roboto Condensed'; text-anchor: middle" x="121.144717" y="158.79874" transform="rotate(-0 121.144717 158.79874)">20</text>
     </g>
    </g>
    <g id="xtick_7">
     <g id="line2d_13">
      <path d="M 140.442926 152.04874 
L 140.442926 1.5 
" clip-path="url(#p310b3e30d8)" style="fill: none; stroke: #b0b0b0; stroke-opacity: 0.25; stroke-width: 0.8; stroke-linecap: square"/>
     </g>
     <g id="line2d_14">
      <g>
       <use xlink:href="#mc2d8958be6" x="140.442926" y="152.04874" style="stroke: #000000; stroke-width: 0.4"/>
      </g>
     </g>
     <g id="text_7">
      <text style="font-size: 5px; font-family: 'Roboto Condensed'; text-anchor: middle" x="140.442926" y="158.79874" transform="rotate(-0 140.442926 158.79874)">24</text>
     </g>
    </g>
    <g id="xtick_8">
     <g id="line2d_15">
      <path d="M 159.741135 152.04874 
L 159.741135 1.5 
" clip-path="url(#p310b3e30d8)" style="fill: none; stroke: #b0b0b0; stroke-opacity: 0.25; stroke-width: 0.8; stroke-linecap: square"/>
     </g>
     <g id="line2d_16">
      <g>
       <use xlink:href="#mc2d8958be6" x="159.741135" y="152.04874" style="stroke: #000000; stroke-width: 0.4"/>
      </g>
     </g>
     <g id="text_8">
      <text style="font-size: 5px; font-family: 'Roboto Condensed'; text-anchor: middle" x="159.741135" y="158.79874" transform="rotate(-0 159.741135 158.79874)">28</text>
     </g>
    </g>
    <g id="xtick_9">
     <g id="line2d_17">
      <path d="M 179.039344 152.04874 
L 179.039344 1.5 
" clip-path="url(#p310b3e30d8)" style="fill: none; stroke: #b0b0b0; stroke-opacity: 0.25; stroke-width: 0.8; stroke-linecap: square"/>
     </g>
     <g id="line2d_18">
      <g>
       <use xlink:href="#mc2d8958be6" x="179.039344" y="152.04874" style="stroke: #000000; stroke-width: 0.4"/>
      </g>
     </g>
     <g id="text_9">
      <text style="font-size: 5px; font-family: 'Roboto Condensed'; text-anchor: middle" x="179.039344" y="158.79874" transform="rotate(-0 179.039344 158.79874)">32</text>
     </g>
    </g>
    <g id="xtick_10">
     <g id="line2d_19">
      <path d="M 198.337553 152.04874 
L 198.337553 1.5 
" clip-path="url(#p310b3e30d8)" style="fill: none; stroke: #b0b0b0; stroke-opacity: 0.25; stroke-width: 0.8; stroke-linecap: square"/>
     </g>
     <g id="line2d_20">
      <g>
       <use xlink:href="#mc2d8958be6" x="198.337553" y="152.04874" style="stroke: #000000; stroke-width: 0.4"/>
      </g>
     </g>
     <g id="text_10">
      <text style="font-size: 5px; font-family: 'Roboto Condensed'; text-anchor: middle" x="198.337553" y="158.79874" transform="rotate(-0 198.337553 158.79874)">36</text>
     </g>
    </g>
    <g id="xtick_11">
     <g id="line2d_21">
      <path d="M 207.986657 152.04874 
L 207.986657 1.5 
" clip-path="url(#p310b3e30d8)" style="fill: none; stroke: #b0b0b0; stroke-opacity: 0.25; stroke-width: 0.8; stroke-linecap: square"/>
     </g>
     <g id="line2d_22">
      <g>
       <use xlink:href="#mc2d8958be6" x="207.986657" y="152.04874" style="stroke: #000000; stroke-width: 0.4"/>
      </g>
     </g>
     <g id="text_11">
      <text style="font-size: 5px; font-family: 'Roboto Condensed'; text-anchor: middle" x="207.986657" y="158.79874" transform="rotate(-0 207.986657 158.79874)">38</text>
     </g>
    </g>
    <g id="text_12">
     <text style="font-size: 7px; font-family: 'Roboto Condensed'; text-anchor: middle" x="118.732441" y="166.79874" transform="rotate(-0 118.732441 166.79874)">observation index</text>
    </g>
   </g>
   <g id="matplotlib.axis_2">
    <g id="ytick_1">
     <g id="line2d_23">
      <path d="M 18.43 150.33974 
L 219.034882 150.33974 
" clip-path="url(#p310b3e30d8)" style="fill: none; stroke: #b0b0b0; stroke-opacity: 0.25; stroke-width: 0.8; stroke-linecap: square"/>
     </g>
     <g id="line2d_24">
      <defs>
       <path id="md1e81133ab" d="M 0 0 
L -1.5 0 
" style="stroke: #000000; stroke-width: 0.4"/>
      </defs>
      <g>
       <use xlink:href="#md1e81133ab" x="18.43" y="150.33974" style="stroke: #000000; stroke-width: 0.4"/>
      </g>
     </g>
     <g id="text_13">
      <text style="font-size: 5px; font-family: 'Roboto Condensed'; text-anchor: end" x="15.43" y="152.21474" transform="rotate(-0 15.43 152.21474)">10</text>
     </g>
    </g>
    <g id="ytick_2">
     <g id="line2d_25">
      <path d="M 18.43 118.403134 
L 219.034882 118.403134 
" clip-path="url(#p310b3e30d8)" style="fill: none; stroke: #b0b0b0; stroke-opacity: 0.25; stroke-width: 0.8; stroke-linecap: square"/>
     </g>
     <g id="line2d_26">
      <g>
       <use xlink:href="#md1e81133ab" x="18.43" y="118.403134" style="stroke: #000000; stroke-width: 0.4"/>
      </g>
     </g>
     <g id="text_14">
      <text style="font-size: 5px; font-family: 'Roboto Condensed'; text-anchor: end" x="15.43" y="120.278134" transform="rotate(-0 15.43 120.278134)">20</text>
     </g>
    </g>
    <g id="ytick_3">
     <g id="line2d_27">
      <path d="M 18.43 86.466529 
L 219.034882 86.466529 
" clip-path="url(#p310b3e30d8)" style="fill: none; stroke: #b0b0b0; stroke-opacity: 0.25; stroke-width: 0.8; stroke-linecap: square"/>
     </g>
     <g id="line2d_28">
      <g>
       <use xlink:href="#md1e81133ab" x="18.43" y="86.466529" style="stroke: #000000; stroke-width: 0.4"/>
      </g>
     </g>
     <g id="text_15">
      <text style="font-size: 5px; font-family: 'Roboto Condensed'; text-anchor: end" x="15.43" y="88.341529" transform="rotate(-0 15.43 88.341529)">30</text>
     </g>
    </g>
    <g id="ytick_4">
     <g id="line2d_29">
      <path d="M 18.43 54.529923 
L 219.034882 54.529923 
" clip-path="url(#p310b3e30d8)" style="fill: none; stroke: #b0b0b0; stroke-opacity: 0.25; stroke-width: 0.8; stroke-linecap: square"/>
     </g>
     <g id="line2d_30">
      <g>
       <use xlink:href="#md1e81133ab" x="18.43" y="54.529923" style="stroke: #000000; stroke-width: 0.4"/>
      </g>
     </g>
     <g id="text_16">
      <text style="font-size: 5px; font-family: 'Roboto Condensed'; text-anchor: end" x="15.43" y="56.404923" transform="rotate(-0 15.43 56.404923)">40</text>
     </g>
    </g>
    <g id="ytick_5">
     <g id="line2d_31">
      <path d="M 18.43 22.593318 
L 219.034882 22.593318 
" clip-path="url(#p310b3e30d8)" style="fill: none; stroke: #b0b0b0; stroke-opacity: 0.25; stroke-width: 0.8; stroke-linecap: square"/>
     </g>
     <g id="line2d_32">
      <g>
       <use xlink:href="#md1e81133ab" x="18.43" y="22.593318" style="stroke: #000000; stroke-width: 0.4"/>
      </g>
     </g>
     <g id="text_17">
      <text style="font-size: 5px; font-family: 'Roboto Condensed'; text-anchor: end" x="15.43" y="24.468318" transform="rotate(-0 15.43 24.468318)">50</text>
     </g>
    </g>
    <g id="text_18">
     <text style="font-size: 7px; font-family: 'Roboto Condensed'; text-anchor: middle" x="7.244063" y="76.77437" transform="rotate(-90 7.244063 76.77437)">hypervolume (unitless)</text>
    </g>
   </g>
   <g id="line2d_33">
    <path d="M 29.478225 145.615033 
L 34.302777 135.986788 
L 39.127329 81.130435 
L 43.951881 77.510778 
L 48.776434 77.510778 
L 53.600986 68.014384 
L 58.425538 68.014384 
L 63.25009 68.014384 
L 68.074642 60.610971 
L 72.899195 60.610971 
L 77.723747 59.359664 
L 82.548299 58.977396 
L 87.372851 50.134138 
L 92.197404 43.976211 
L 97.021956 43.976211 
L 101.846508 43.976211 
L 106.67106 40.620495 
L 111.495613 29.211832 
L 116.320165 29.211832 
L 121.144717 21.344042 
L 125.969269 20.870026 
L 130.793822 20.870026 
L 135.618374 20.868186 
L 140.442926 20.868186 
L 145.267478 20.868186 
L 150.09203 20.868186 
L 154.916583 20.868186 
L 159.741135 20.868186 
L 164.565687 19.543795 
L 169.390239 19.543795 
L 174.214792 19.543795 
L 179.039344 19.543795 
L 183.863896 19.543795 
L 188.688448 19.543795 
L 193.513001 19.543795 
L 198.337553 17.772269 
L 203.162105 17.471646 
L 207.986657 16.940896 
" clip-path="url(#p310b3e30d8)" style="fill: none; stroke: #1f77b4; stroke-width: 0.9; stroke-linecap: square"/>
    <defs>
     <path id="m833d8ebc38" d="M 0 0.8 
C 0.212162 0.8 0.415664 0.715707 0.565685 0.565685 
C 0.715707 0.415664 0.8 0.212162 0.8 0 
C 0.8 -0.212162 0.715707 -0.415664 0.565685 -0.565685 
C 0.415664 -0.715707 0.212162 -0.8 0 -0.8 
C -0.212162 -0.8 -0.415664 -0.715707 -0.565685 -0.565685 
C -0.715707 -0.415664 -0.8 -0.212162 -0.8 0 
C -0.8 0.212162 -0.715707 0.415664 -0.565685 0.565685 
C -0.415664 0.715707 -0.212162 0.8 0 0.8 
z
" style="stroke: #1f77b4"/>
    </defs>
    <g clip-path="url(#p310b3e30d8)">
     <use xlink:href="#m833d8ebc38" x="29.478225" y="145.615033" style="fill: #1f77b4; stroke: #1f77b4"/>
     <use xlink:href="#m833d8ebc38" x="34.302777" y="135.986788" style="fill: #1f77b4; stroke: #1f77b4"/>
     <use xlink:href="#m833d8ebc38" x="39.127329" y="81.130435" style="fill: #1f77b4; stroke: #1f77b4"/>
     <use xlink:href="#m833d8ebc38" x="43.951881" y="77.510778" style="fill: #1f77b4; stroke: #1f77b4"/>
     <use xlink:href="#m833d8ebc38" x="48.776434" y="77.510778" style="fill: #1f77b4; stroke: #1f77b4"/>
     <use xlink:href="#m833d8ebc38" x="53.600986" y="68.014384" style="fill: #1f77b4; stroke: #1f77b4"/>
     <use xlink:href="#m833d8ebc38" x="58.425538" y="68.014384" style="fill: #1f77b4; stroke: #1f77b4"/>
     <use xlink:href="#m833d8ebc38" x="63.25009" y="68.014384" style="fill: #1f77b4; stroke: #1f77b4"/>
     <use xlink:href="#m833d8ebc38" x="68.074642" y="60.610971" style="fill: #1f77b4; stroke: #1f77b4"/>
     <use xlink:href="#m833d8ebc38" x="72.899195" y="60.610971" style="fill: #1f77b4; stroke: #1f77b4"/>
     <use xlink:href="#m833d8ebc38" x="77.723747" y="59.359664" style="fill: #1f77b4; stroke: #1f77b4"/>
     <use xlink:href="#m833d8ebc38" x="82.548299" y="58.977396" style="fill: #1f77b4; stroke: #1f77b4"/>
     <use xlink:href="#m833d8ebc38" x="87.372851" y="50.134138" style="fill: #1f77b4; stroke: #1f77b4"/>
     <use xlink:href="#m833d8ebc38" x="92.197404" y="43.976211" style="fill: #1f77b4; stroke: #1f77b4"/>
     <use xlink:href="#m833d8ebc38" x="97.021956" y="43.976211" style="fill: #1f77b4; stroke: #1f77b4"/>
     <use xlink:href="#m833d8ebc38" x="101.846508" y="43.976211" style="fill: #1f77b4; stroke: #1f77b4"/>
     <use xlink:href="#m833d8ebc38" x="106.67106" y="40.620495" style="fill: #1f77b4; stroke: #1f77b4"/>
     <use xlink:href="#m833d8ebc38" x="111.495613" y="29.211832" style="fill: #1f77b4; stroke: #1f77b4"/>
     <use xlink:href="#m833d8ebc38" x="116.320165" y="29.211832" style="fill: #1f77b4; stroke: #1f77b4"/>
     <use xlink:href="#m833d8ebc38" x="121.144717" y="21.344042" style="fill: #1f77b4; stroke: #1f77b4"/>
     <use xlink:href="#m833d8ebc38" x="125.969269" y="20.870026" style="fill: #1f77b4; stroke: #1f77b4"/>
     <use xlink:href="#m833d8ebc38" x="130.793822" y="20.870026" style="fill: #1f77b4; stroke: #1f77b4"/>
     <use xlink:href="#m833d8ebc38" x="135.618374" y="20.868186" style="fill: #1f77b4; stroke: #1f77b4"/>
     <use xlink:href="#m833d8ebc38" x="140.442926" y="20.868186" style="fill: #1f77b4; stroke: #1f77b4"/>
     <use xlink:href="#m833d8ebc38" x="145.267478" y="20.868186" style="fill: #1f77b4; stroke: #1f77b4"/>
     <use xlink:href="#m833d8ebc38" x="150.09203" y="20.868186" style="fill: #1f77b4; stroke: #1f77b4"/>
     <use xlink:href="#m833d8ebc38" x="154.916583" y="20.868186" style="fill: #1f77b4; stroke: #1f77b4"/>
     <use xlink:href="#m833d8ebc38" x="159.741135" y="20.868186" style="fill: #1f77b4; stroke: #1f77b4"/>
     <use xlink:href="#m833d8ebc38" x="164.565687" y="19.543795" style="fill: #1f77b4; stroke: #1f77b4"/>
     <use xlink:href="#m833d8ebc38" x="169.390239" y="19.543795" style="fill: #1f77b4; stroke: #1f77b4"/>
     <use xlink:href="#m833d8ebc38" x="174.214792" y="19.543795" style="fill: #1f77b4; stroke: #1f77b4"/>
     <use xlink:href="#m833d8ebc38" x="179.039344" y="19.543795" style="fill: #1f77b4; stroke: #1f77b4"/>
     <use xlink:href="#m833d8ebc38" x="183.863896" y="19.543795" style="fill: #1f77b4; stroke: #1f77b4"/>
     <use xlink:href="#m833d8ebc38" x="188.688448" y="19.543795" style="fill: #1f77b4; stroke: #1f77b4"/>
     <use xlink:href="#m833d8ebc38" x="193.513001" y="19.543795" style="fill: #1f77b4; stroke: #1f77b4"/>
     <use xlink:href="#m833d8ebc38" x="198.337553" y="17.772269" style="fill: #1f77b4; stroke: #1f77b4"/>
     <use xlink:href="#m833d8ebc38" x="203.162105" y="17.471646" style="fill: #1f77b4; stroke: #1f77b4"/>
     <use xlink:href="#m833d8ebc38" x="207.986657" y="16.940896" style="fill: #1f77b4; stroke: #1f77b4"/>
    </g>
   </g>
   <g id="line2d_34">
    <path d="M 46.364157 152.04874 
L 46.364157 1.5 
" clip-path="url(#p310b3e30d8)" style="fill: none; stroke-dasharray: 2.22,0.96; stroke-dashoffset: 0; stroke: #808080; stroke-width: 0.6"/>
   </g>
   <g id="line2d_35">
    <path d="M 104.258784 152.04874 
L 104.258784 1.5 
" clip-path="url(#p310b3e30d8)" style="fill: none; stroke-dasharray: 2.22,0.96; stroke-dashoffset: 0; stroke: #808080; stroke-width: 0.6"/>
   </g>
   <g id="patch_3">
    <path d="M 18.43 152.04874 
L 18.43 1.5 
" style="fill: none; stroke: #000000; stroke-width: 0.4; stroke-linejoin: miter; stroke-linecap: square"/>
   </g>
   <g id="patch_4">
    <path d="M 219.034882 152.04874 
L 219.034882 1.5 
" style="fill: none; stroke: #000000; stroke-width: 0.4; stroke-linejoin: miter; stroke-linecap: square"/>
   </g>
   <g id="patch_5">
    <path d="M 18.43 152.04874 
L 219.034882 152.04874 
" style="fill: none; stroke: #000000; stroke-width: 0.4; stroke-linejoin: miter; stroke-linecap: square"/>
   </g>
   <g id="patch_6">
    <path d="M 18.43 1.5 
L 219.034882 1.5 
" style="fill: none; stroke: #000000; stroke-width: 0.4; stroke-linejoin: miter; stroke-linecap: square"/>
   </g>
   <g id="text_19">
    <text style="font-size: 7px; font-family: 'Roboto Condensed'; text-anchor: middle" x="36.715053" y="12.77195" transform="rotate(-0 36.715053 12.77195)">Seed</text>
   </g>
   <g id="text_20">
    <text style="font-size: 7px; font-family: 'Roboto Condensed'; text-anchor: middle" x="75.311471" y="12.77195" transform="rotate(-0 75.311471 12.77195)">Imported</text>
   </g>
   <g id="text_21">
    <text style="font-size: 7px; font-family: 'Roboto Condensed'; text-anchor: middle" x="154.916583" y="12.77195" transform="rotate(-0 154.916583 12.77195)">New BO</text>
   </g>
  </g>
  <g id="axes_2">
   <g id="patch_7">
    <path d="M 27.548404 152.04874 
L 31.408046 152.04874 
L 31.408046 56.22593 
L 27.548404 56.22593 
z
" clip-path="url(#p310b3e30d8)" style="fill: #4c78a8; opacity: 0.28"/>
   </g>
   <g id="patch_8">
    <path d="M 32.372956 152.04874 
L 36.232598 152.04874 
L 36.232598 126.883096 
L 32.372956 126.883096 
z
" clip-path="url(#p310b3e30d8)" style="fill: #4c78a8; opacity: 0.28"/>
   </g>
   <g id="patch_9">
    <path d="M 37.197508 152.04874 
L 41.05715 152.04874 
L 41.05715 8.668988 
L 37.197508 8.668988 
z
" clip-path="url(#p310b3e30d8)" style="fill: #4c78a8; opacity: 0.28"/>
   </g>
   <g id="patch_10">
    <path d="M 42.02206 152.04874 
L 45.881702 152.04874 
L 45.881702 142.58793 
L 42.02206 142.58793 
z
" clip-path="url(#p310b3e30d8)" style="fill: #4c78a8; opacity: 0.28"/>
   </g>
   <g id="patch_11">
    <path d="M 46.846613 152.04874 
L 50.706254 152.04874 
L 50.706254 152.04874 
L 46.846613 152.04874 
z
" clip-path="url(#p310b3e30d8)" style="fill: #f58518; opacity: 0.28"/>
   </g>
   <g id="patch_12">
    <path d="M 51.671165 152.04874 
L 55.530807 152.04874 
L 55.530807 127.22772 
L 51.671165 127.22772 
z
" clip-path="url(#p310b3e30d8)" style="fill: #f58518; opacity: 0.28"/>
   </g>
   <g id="patch_13">
    <path d="M 56.495717 152.04874 
L 60.355359 152.04874 
L 60.355359 152.04874 
L 56.495717 152.04874 
z
" clip-path="url(#p310b3e30d8)" style="fill: #f58518; opacity: 0.28"/>
   </g>
   <g id="patch_14">
    <path d="M 61.320269 152.04874 
L 65.179911 152.04874 
L 65.179911 152.04874 
L 61.320269 152.04874 
z
" clip-path="url(#p310b3e30d8)" style="fill: #f58518; opacity: 0.28"/>
   </g>
   <g id="patch_15">
    <path d="M 66.144822 152.04874 
L 70.004463 152.04874 
L 70.004463 132.69821 
L 66.144822 132.69821 
z
" clip-path="url(#p310b3e30d8)" style="fill: #f58518; opacity: 0.28"/>
   </g>
   <g id="patch_16">
    <path d="M 70.969374 152.04874 
L 74.829016 152.04874 
L 74.829016 152.04874 
L 70.969374 152.04874 
z
" clip-path="url(#p310b3e30d8)" style="fill: #f58518; opacity: 0.28"/>
   </g>
   <g id="patch_17">
    <path d="M 75.793926 152.04874 
L 79.653568 152.04874 
L 79.653568 148.778159 
L 75.793926 148.778159 
z
" clip-path="url(#p310b3e30d8)" style="fill: #f58518; opacity: 0.28"/>
   </g>
   <g id="patch_18">
    <path d="M 80.618478 152.04874 
L 84.47812 152.04874 
L 84.47812 151.049595 
L 80.618478 151.049595 
z
" clip-path="url(#p310b3e30d8)" style="fill: #f58518; opacity: 0.28"/>
   </g>
   <g id="patch_19">
    <path d="M 85.443031 152.04874 
L 89.302672 152.04874 
L 89.302672 128.934842 
L 85.443031 128.934842 
z
" clip-path="url(#p310b3e30d8)" style="fill: #f58518; opacity: 0.28"/>
   </g>
   <g id="patch_20">
    <path d="M 90.267583 152.04874 
L 94.127225 152.04874 
L 94.127225 135.953576 
L 90.267583 135.953576 
z
" clip-path="url(#p310b3e30d8)" style="fill: #f58518; opacity: 0.28"/>
   </g>
   <g id="patch_21">
    <path d="M 95.092135 152.04874 
L 98.951777 152.04874 
L 98.951777 152.04874 
L 95.092135 152.04874 
z
" clip-path="url(#p310b3e30d8)" style="fill: #f58518; opacity: 0.28"/>
   </g>
   <g id="patch_22">
    <path d="M 99.916687 152.04874 
L 103.776329 152.04874 
L 103.776329 152.04874 
L 99.916687 152.04874 
z
" clip-path="url(#p310b3e30d8)" style="fill: #f58518; opacity: 0.28"/>
   </g>
   <g id="patch_23">
    <path d="M 104.741239 152.04874 
L 108.600881 152.04874 
L 108.600881 143.2778 
L 104.741239 143.2778 
z
" clip-path="url(#p310b3e30d8)" style="fill: #f58518; opacity: 0.28"/>
   </g>
   <g id="patch_24">
    <path d="M 109.565792 152.04874 
L 113.425433 152.04874 
L 113.425433 122.229563 
L 109.565792 122.229563 
z
" clip-path="url(#p310b3e30d8)" style="fill: #f58518; opacity: 0.28"/>
   </g>
   <g id="patch_25">
    <path d="M 114.390344 152.04874 
L 118.249986 152.04874 
L 118.249986 152.04874 
L 114.390344 152.04874 
z
" clip-path="url(#p310b3e30d8)" style="fill: #f58518; opacity: 0.28"/>
   </g>
   <g id="patch_26">
    <path d="M 119.214896 152.04874 
L 123.074538 152.04874 
L 123.074538 131.484452 
L 119.214896 131.484452 
z
" clip-path="url(#p310b3e30d8)" style="fill: #f58518; opacity: 0.28"/>
   </g>
   <g id="patch_27">
    <path d="M 124.039448 152.04874 
L 127.89909 152.04874 
L 127.89909 150.809792 
L 124.039448 150.809792 
z
" clip-path="url(#p310b3e30d8)" style="fill: #f58518; opacity: 0.28"/>
   </g>
   <g id="patch_28">
    <path d="M 128.864001 152.04874 
L 132.723642 152.04874 
L 132.723642 152.04874 
L 128.864001 152.04874 
z
" clip-path="url(#p310b3e30d8)" style="fill: #f58518; opacity: 0.28"/>
   </g>
   <g id="patch_29">
    <path d="M 133.688553 152.04874 
L 137.548195 152.04874 
L 137.548195 152.04393 
L 133.688553 152.04393 
z
" clip-path="url(#p310b3e30d8)" style="fill: #f58518; opacity: 0.28"/>
   </g>
   <g id="patch_30">
    <path d="M 138.513105 152.04874 
L 142.372747 152.04874 
L 142.372747 152.04874 
L 138.513105 152.04874 
z
" clip-path="url(#p310b3e30d8)" style="fill: #f58518; opacity: 0.28"/>
   </g>
   <g id="patch_31">
    <path d="M 143.337657 152.04874 
L 147.197299 152.04874 
L 147.197299 152.04874 
L 143.337657 152.04874 
z
" clip-path="url(#p310b3e30d8)" style="fill: #f58518; opacity: 0.28"/>
   </g>
   <g id="patch_32">
    <path d="M 148.16221 152.04874 
L 152.021851 152.04874 
L 152.021851 152.04874 
L 148.16221 152.04874 
z
" clip-path="url(#p310b3e30d8)" style="fill: #f58518; opacity: 0.28"/>
   </g>
   <g id="patch_33">
    <path d="M 152.986762 152.04874 
L 156.846404 152.04874 
L 156.846404 152.04874 
L 152.986762 152.04874 
z
" clip-path="url(#p310b3e30d8)" style="fill: #f58518; opacity: 0.28"/>
   </g>
   <g id="patch_34">
    <path d="M 157.811314 152.04874 
L 161.670956 152.04874 
L 161.670956 152.04874 
L 157.811314 152.04874 
z
" clip-path="url(#p310b3e30d8)" style="fill: #f58518; opacity: 0.28"/>
   </g>
   <g id="patch_35">
    <path d="M 162.635866 152.04874 
L 166.495508 152.04874 
L 166.495508 148.587139 
L 162.635866 148.587139 
z
" clip-path="url(#p310b3e30d8)" style="fill: #f58518; opacity: 0.28"/>
   </g>
   <g id="patch_36">
    <path d="M 167.460419 152.04874 
L 171.32006 152.04874 
L 171.32006 152.04874 
L 167.460419 152.04874 
z
" clip-path="url(#p310b3e30d8)" style="fill: #f58518; opacity: 0.28"/>
   </g>
   <g id="patch_37">
    <path d="M 172.284971 152.04874 
L 176.144613 152.04874 
L 176.144613 152.04874 
L 172.284971 152.04874 
z
" clip-path="url(#p310b3e30d8)" style="fill: #f58518; opacity: 0.28"/>
   </g>
   <g id="patch_38">
    <path d="M 177.109523 152.04874 
L 180.969165 152.04874 
L 180.969165 152.04874 
L 177.109523 152.04874 
z
" clip-path="url(#p310b3e30d8)" style="fill: #f58518; opacity: 0.28"/>
   </g>
   <g id="patch_39">
    <path d="M 181.934075 152.04874 
L 185.793717 152.04874 
L 185.793717 152.04874 
L 181.934075 152.04874 
z
" clip-path="url(#p310b3e30d8)" style="fill: #f58518; opacity: 0.28"/>
   </g>
   <g id="patch_40">
    <path d="M 186.758627 152.04874 
L 190.618269 152.04874 
L 190.618269 152.04874 
L 186.758627 152.04874 
z
" clip-path="url(#p310b3e30d8)" style="fill: #f58518; opacity: 0.28"/>
   </g>
   <g id="patch_41">
    <path d="M 191.58318 152.04874 
L 195.442821 152.04874 
L 195.442821 152.04874 
L 191.58318 152.04874 
z
" clip-path="url(#p310b3e30d8)" style="fill: #f58518; opacity: 0.28"/>
   </g>
   <g id="patch_42">
    <path d="M 196.407732 152.04874 
L 200.267374 152.04874 
L 200.267374 147.418447 
L 196.407732 147.418447 
z
" clip-path="url(#p310b3e30d8)" style="fill: #f58518; opacity: 0.28"/>
   </g>
   <g id="patch_43">
    <path d="M 201.232284 152.04874 
L 205.091926 152.04874 
L 205.091926 151.262992 
L 201.232284 151.262992 
z
" clip-path="url(#p310b3e30d8)" style="fill: #f58518; opacity: 0.28"/>
   </g>
   <g id="patch_44">
    <path d="M 206.056836 152.04874 
L 209.916478 152.04874 
L 209.916478 150.661503 
L 206.056836 150.661503 
z
" clip-path="url(#p310b3e30d8)" style="fill: #f58518; opacity: 0.28"/>
   </g>
   <g id="matplotlib.axis_3">
    <g id="ytick_6">
     <g id="line2d_36">
      <defs>
       <path id="mc281225a27" d="M 0 0 
L 1.5 0 
" style="stroke: #000000; stroke-width: 0.4"/>
      </defs>
      <g>
       <use xlink:href="#mc281225a27" x="219.034882" y="152.04874" style="stroke: #000000; stroke-width: 0.4"/>
      </g>
     </g>
     <g id="text_22">
      <text style="font-size: 5px; font-family: 'Roboto Condensed'; text-anchor: start" x="222.034882" y="153.92374" transform="rotate(-0 222.034882 153.92374)">0.0</text>
     </g>
    </g>
    <g id="ytick_7">
     <g id="line2d_37">
      <g>
       <use xlink:href="#mc281225a27" x="219.034882" y="131.180316" style="stroke: #000000; stroke-width: 0.4"/>
      </g>
     </g>
     <g id="text_23">
      <text style="font-size: 5px; font-family: 'Roboto Condensed'; text-anchor: start" x="222.034882" y="133.055316" transform="rotate(-0 222.034882 133.055316)">2.5</text>
     </g>
    </g>
    <g id="ytick_8">
     <g id="line2d_38">
      <g>
       <use xlink:href="#mc281225a27" x="219.034882" y="110.311891" style="stroke: #000000; stroke-width: 0.4"/>
      </g>
     </g>
     <g id="text_24">
      <text style="font-size: 5px; font-family: 'Roboto Condensed'; text-anchor: start" x="222.034882" y="112.186891" transform="rotate(-0 222.034882 112.186891)">5.0</text>
     </g>
    </g>
    <g id="ytick_9">
     <g id="line2d_39">
      <g>
       <use xlink:href="#mc281225a27" x="219.034882" y="89.443467" style="stroke: #000000; stroke-width: 0.4"/>
      </g>
     </g>
     <g id="text_25">
      <text style="font-size: 5px; font-family: 'Roboto Condensed'; text-anchor: start" x="222.034882" y="91.318467" transform="rotate(-0 222.034882 91.318467)">7.5</text>
     </g>
    </g>
    <g id="ytick_10">
     <g id="line2d_40">
      <g>
       <use xlink:href="#mc281225a27" x="219.034882" y="68.575042" style="stroke: #000000; stroke-width: 0.4"/>
      </g>
     </g>
     <g id="text_26">
      <text style="font-size: 5px; font-family: 'Roboto Condensed'; text-anchor: start" x="222.034882" y="70.450042" transform="rotate(-0 222.034882 70.450042)">10.0</text>
     </g>
    </g>
    <g id="ytick_11">
     <g id="line2d_41">
      <g>
       <use xlink:href="#mc281225a27" x="219.034882" y="47.706618" style="stroke: #000000; stroke-width: 0.4"/>
      </g>
     </g>
     <g id="text_27">
      <text style="font-size: 5px; font-family: 'Roboto Condensed'; text-anchor: start" x="222.034882" y="49.581618" transform="rotate(-0 222.034882 49.581618)">12.5</text>
     </g>
    </g>
    <g id="ytick_12">
     <g id="line2d_42">
      <g>
       <use xlink:href="#mc281225a27" x="219.034882" y="26.838193" style="stroke: #000000; stroke-width: 0.4"/>
      </g>
     </g>
     <g id="text_28">
      <text style="font-size: 5px; font-family: 'Roboto Condensed'; text-anchor: start" x="222.034882" y="28.713193" transform="rotate(-0 222.034882 28.713193)">15.0</text>
     </g>
    </g>
    <g id="ytick_13">
     <g id="line2d_43">
      <g>
       <use xlink:href="#mc281225a27" x="219.034882" y="5.969769" style="stroke: #000000; stroke-width: 0.4"/>
      </g>
     </g>
     <g id="text_29">
      <text style="font-size: 5px; font-family: 'Roboto Condensed'; text-anchor: start" x="222.034882" y="7.844769" transform="rotate(-0 222.034882 7.844769)">17.5</text>
     </g>
    </g>
    <g id="text_30">
     <text style="font-size: 7px; font-family: 'Roboto Condensed'; text-anchor: middle" x="237.507538" y="76.77437" transform="rotate(-90 237.507538 76.77437)">incremental HV improvement</text>
    </g>
   </g>
   <g id="patch_45">
    <path d="M 18.43 152.04874 
L 18.43 1.5 
" style="fill: none; stroke: #000000; stroke-width: 0.4; stroke-linejoin: miter; stroke-linecap: square"/>
   </g>
   <g id="patch_46">
    <path d="M 219.034882 152.04874 
L 219.034882 1.5 
" style="fill: none; stroke: #000000; stroke-width: 0.4; stroke-linejoin: miter; stroke-linecap: square"/>
   </g>
   <g id="patch_47">
    <path d="M 18.43 152.04874 
L 219.034882 152.04874 
" style="fill: none; stroke: #000000; stroke-width: 0.4; stroke-linejoin: miter; stroke-linecap: square"/>
   </g>
   <g id="patch_48">
    <path d="M 18.43 1.5 
L 219.034882 1.5 
" style="fill: none; stroke: #000000; stroke-width: 0.4; stroke-linejoin: miter; stroke-linecap: square"/>
   </g>
  </g>
 </g>
 <defs>
  <clipPath id="p310b3e30d8">
   <rect x="18.43" y="1.5" width="200.604882" height="150.54874"/>
  </clipPath>
 </defs>
</svg>
